<svg xmlns="http://www.w3.org/2000/svg" width="1000" height="1000" viewBox="0 0 1000 1000">
  <rect width="1000" height="1000" fill="#230f38" />
  <path d="M 356.20576,679.6511 546.22744,722.96254 709.33853,592.53255 713.55691,405.57961 553.35412,279.91618 358.97054,317.87879 274.21712,502.67075 Z M 64.342277,343.64514 139.63881,326.4592 106.1287,256.87475 275.31847,218.25829 350.61499,61.903427 410.99812,110.05737 444.50822,40.472905 580.18791,148.67385 749.37766,110.0574 V 187.29032 L 824.67419,170.10438 V 343.64515 L 960.35384,451.84606 899.97071,500 960.35384,548.15394 824.67419,656.35485 V 829.89562 L 749.37766,812.70968 V 889.9426 L 580.18791,851.32615 444.50828,959.52705 410.99816,889.9426 350.61504,938.09654 275.31851,781.74172 106.12876,743.12527 139.63886,673.54081 64.342335,656.35487 139.63884,500.00003 Z" fill="#5a318e" />
  <path d="M 460.75527,308.6953 538.40147,331.7521 618.84377,348.94993 655.48447,425.12264 693.67187,503.15843 655.48447,574.87733 620.35037,650.83123 538.40147,668.24793 454.59477,692.92913 392.40147,634.92433 329.08577,585.48973 327.42527,500.00003 323.92397,415.02529 392.40147,365.07565 Z M 181.42527,586.77043 749.37766,716.40183 824.67419,656.35485 V 560.04698 L 369.2117,196.82778 275.31847,218.25829 233.53205,305.02871 486.29467,829.89564 580.18791,851.32615 655.48444,791.27917 V 208.72083 L 580.18791,148.67385 486.29463,170.10437 233.53209,694.97134 275.31851,781.74172 369.21172,803.17222 824.67418,439.95303 824.67419,343.64515 749.37766,283.59817 181.42527,413.22958 139.63884,500.00003 Z M 139.63881,326.4592 749.37766,187.29032 V 812.70968 L 139.63886,673.54081 410.99812,110.05737 899.97071,500 410.99816,889.9426 Z" fill="#576ab7" />
  <path d="M 369.2117,196.82778 486.29465,170.10434 233.53208,694.97132 181.42527,586.77041 749.37766,716.40183 655.48444,791.27917 655.48443,208.72083 749.37766,283.59819 181.42524,413.22959 233.53204,305.02869 486.29467,829.89564 369.21175,803.17223 824.67418,439.95303 V 560.04697 Z" fill="#54a2e1" fill-rule="evenodd" />
</svg>